<svg xmlns="http://www.w3.org/2000/svg" xmlns:xlink="http://www.w3.org/1999/xlink" width="270" height="30" viewBox="0 0 270 30">
  <defs>
    <clipPath id="clip-path">
      <path id="Path_27" data-name="Path 27" d="M0,0H270V30H0Z" fill="none"/>
    </clipPath>
  </defs>
  <g id="image" clip-path="url(#clip-path)">
    <path id="Path_22" data-name="Path 22" d="M2.567,17.444,1.2,18.813a3.9,3.9,0,0,0,0,5.625L12.225,35.573a3.357,3.357,0,0,0,.9.656v-13.5Z" transform="translate(0 -6.541)" fill="#3d89f5"/>
    <path id="Path_23" data-name="Path 23" d="M37.558,17.444l1.369,1.369a3.9,3.9,0,0,1,0,5.625L27.9,35.573a3.357,3.357,0,0,1-.9.656v-13.5Z" transform="translate(-10.125 -6.541)" fill="#1656b9"/>
    <path id="Path_24" data-name="Path 24" d="M27.991,8.109l-6.9-6.919a3.919,3.919,0,0,0-5.625,0L8.547,8.109l9.694,4.838Z" transform="translate(-3.205 0)" fill="#85b5f8"/>
    <g id="Group_2" data-name="Group 2" transform="translate(41.25 2.168)">
      <path id="Path_25" data-name="Path 25" d="M199.65,6.149a2.531,2.531,0,1,1,2.531,2.381,2.457,2.457,0,0,1-2.531-2.381Zm.188,4.556h4.669V27.581h-4.669ZM75,5.081H66v22.5h9.637c5.044,0,7.744-2.644,7.744-6.225a5.213,5.213,0,0,0-4.95-5.456v-.225A4.8,4.8,0,0,0,82.5,10.837c0-3.356-2.531-5.756-7.5-5.756Zm2.681,6.525c0,1.781-1.519,2.85-3.394,2.85l-3.6.056V8.887h3.675c2.119,0,3.319.938,3.319,2.719Zm.694,9.244c0,1.688-1.088,2.794-3.75,2.794H70.687V17.681h3.938a3.281,3.281,0,0,1,3.75,3.169Zm7.312,6.731h4.744l-.075-22.5H85.687Zm7.2-8.381c0-5.231,3.188-8.719,8.306-8.719S109.5,13.968,109.5,19.2s-3.187,8.7-8.306,8.7-8.306-3.487-8.306-8.7Zm11.85-.009c0-2.939-1.221-5.11-3.525-5.11s-3.581,2.175-3.581,5.119,1.219,5.1,3.581,5.1,3.522-2.17,3.525-5.109Zm14.813-8.709c-5.119,0-8.288,3.544-8.288,8.719,0,5.137,3.112,8.7,8.288,8.7,4.444,0,7.275-2.625,7.5-6.506h-4.425a3,3,0,0,1-3.056,2.813c-2.194,0-3.6-1.931-3.6-5.062s1.425-5.006,3.6-5.006a3,3,0,0,1,3.056,2.813h4.425c-.15-3.9-3.094-6.469-7.5-6.469Zm9.956-5.4h4.688V17.1h.244l5.419-6.394h5.363l-6.262,7.313,6.581,9.562h-5.475l-4.613-6.806-1.256,1.444v5.362h-4.687Zm24.3,5.4c-5.119,0-8.288,3.544-8.288,8.719,0,5.137,3.113,8.7,8.325,8.7,4.463,0,7.275-2.625,7.5-6.506h-4.406a3.019,3.019,0,0,1-3.075,2.813c-2.194,0-3.6-1.931-3.6-5.062s1.425-5.006,3.6-5.006a3.019,3.019,0,0,1,3.075,2.813h4.369c-.131-3.9-3.094-6.469-7.5-6.469Zm14.644,17.1h-4.669V5.081h4.537v8.606h.206a4.988,4.988,0,0,1,5.044-3.206c3.506,0,5.831,2.4,5.831,6.356V27.581h-4.687V17.662a2.869,2.869,0,0,0-3-3.281,3.15,3.15,0,0,0-3.262,3.45Zm19.575-9.919c-3.338.319-6.338,1.462-6.338,5.212,0,3.337,2.381,5.025,5.606,5.025a5.174,5.174,0,0,0,4.931-2.663h.131v2.344H196.8v-11.4c0-4.031-3.413-5.719-7.163-5.719-4.05,0-6.694,1.931-7.35,5.006l4.331.356a2.812,2.812,0,0,1,3-1.875c1.594,0,2.494.806,2.494,2.194,0,1.106-1.144,1.237-4.088,1.519Zm4.125,2.006v1.875a3.244,3.244,0,0,1-3.506,3.038c-1.444,0-2.475-.656-2.475-1.969s1.087-1.969,2.737-2.194A11.5,11.5,0,0,0,192.15,19.668Zm15.413,7.912h4.762l-.075-9.75a3.094,3.094,0,0,1,3.188-3.45,2.887,2.887,0,0,1,3,3.281v9.919h4.688V16.837c0-3.937-2.306-6.356-5.831-6.356a5.138,5.138,0,0,0-5.081,3.206h-.187V10.706h-4.462Z" transform="translate(-66 -3.468)" fill="#fff" fill-rule="evenodd"/>
      <path id="Path_26" data-name="Path 26" d="M370.875,14.907h-4.462l-.019,16.875h4.688V21.657a2.831,2.831,0,0,1,2.737-3.112,2.474,2.474,0,0,1,2.569,2.719V31.782h4.538V21.469a2.643,2.643,0,0,1,2.719-2.925,2.512,2.512,0,0,1,2.606,2.813V31.782h4.688V20.532a5.456,5.456,0,0,0-10.312-2.644h-.263a4.463,4.463,0,0,0-4.594-3.206,4.724,4.724,0,0,0-4.687,3.206h-.206Zm-32.812-.225c-5.119,0-8.269,3.544-8.269,8.719,0,5.137,3.094,8.7,8.362,8.7,4.463,0,7.294-2.625,7.5-6.506H341.25a3.019,3.019,0,0,1-3.075,2.813c-2.175,0-3.6-1.931-3.6-5.062s1.425-5.006,3.6-5.006a3.019,3.019,0,0,1,3.075,2.812h4.313c-.131-3.9-3.094-6.469-7.5-6.469ZM323.276,27.575a2.625,2.625,0,1,0,1.849-.762,2.625,2.625,0,0,0-1.849.762ZM347.362,23.4c0-5.231,3.188-8.719,8.306-8.719s8.288,3.488,8.288,8.719-3.169,8.7-8.288,8.7-8.306-3.488-8.306-8.7Zm11.85-.009c0-2.939-1.221-5.109-3.525-5.109s-3.581,2.175-3.581,5.119,1.219,5.1,3.581,5.1,3.523-2.17,3.525-5.109Z" transform="translate(-162.187 -7.669)" fill="#b1b8c7" fill-rule="evenodd"/>
    </g>
  </g>
</svg>
